# xmcd CD database file
#
# Track frame offsets:
#	150
#	23007
#	41225
#	62480
#	91892
#	116745
#	143400
#	167465
#	183970
#	215475
#	237932
#	259017
#
# Disc length: 3976 seconds
#
# Revision: 8
# Processed by: cddbd v1.5.2PL0 Copyright (c) Steve Scherf et al.
# Submitted via: CDex 1.99.1
#
DISCID=990f860c
DTITLE=Peter Green Splinter Group - Destiny Road
DYEAR=1999
DGENRE=Blues Rock
TTITLE0=Big Change Is Gonna Come
TTITLE1=Say That You Want To
TTITLE2=Heart Of Stone
TTITLE3=You'll Be Sorry Someday
TTITLE4=Tribal Dance
TTITLE5=Burglar
TTITLE6=Turn Your Love Away
TTITLE7=Madison Blues
TTITLE8=I Can't Help Myself
TTITLE9=Indians
TTITLE10=Hiding In Shadows
TTITLE11=There's A River
EXTD=YEAR: 1999
EXTT0=
EXTT1=
EXTT2=
EXTT3=
EXTT4=
EXTT5=
EXTT6=
EXTT7=
EXTT8=
EXTT9=
EXTT10=
EXTT11=
PLAYORDER=
